<mxfile host="app.diagrams.net" modified="2022-07-27T17:01:01.682Z" agent="5.0 (Windows NT 10.0; Win64; x64) AppleWebKit/537.36 (KHTML, like Gecko) Chrome/103.0.0.0 Safari/537.36" etag="zu9IlRalv9SKVaSmZOWu" version="20.2.1" type="github">
  <diagram id="I1Dep_QRg_oPGwWMK_h8" name="第 1 页">
    <mxGraphModel dx="2048" dy="1140" grid="1" gridSize="10" guides="1" tooltips="1" connect="1" arrows="1" fold="1" page="1" pageScale="1" pageWidth="827" pageHeight="1169" math="0" shadow="0">
      <root>
        <mxCell id="0" />
        <mxCell id="1" parent="0" />
      </root>
    </mxGraphModel>
  </diagram>
</mxfile>
